<?xml version="1.0" standalone="no"?>
<!DOCTYPE svg PUBLIC "-//W3C//DTD SVG 20010904//EN"
 "http://www.w3.org/TR/2001/REC-SVG-20010904/DTD/svg10.dtd">
<svg version="1.0" xmlns="http://www.w3.org/2000/svg"
 width="450.000000pt" height="338.000000pt" viewBox="0 0 450.000000 338.000000"
 preserveAspectRatio="xMidYMid meet">

<g transform="translate(0.000000,338.000000) scale(0.100000,-0.100000)"
fill="#000000" stroke="none">
<path d="M1470 1885 c0 -206 2 -375 4 -375 2 0 20 7 41 16 54 22 55 9 1 -16
l-46 -20 0 -140 c0 -77 2 -140 4 -140 3 0 11 6 18 13 25 23 123 95 182 132
375 238 951 370 1466 337 90 -6 166 -10 167 -8 5 4 -152 25 -302 40 l-120 11
-3 263 -2 262 -90 0 -90 0 0 -260 0 -260 -30 0 c-28 0 -33 6 -65 78 -20 42
-72 159 -118 259 l-82 183 -77 0 c-74 0 -78 -1 -79 -22 0 -13 0 -131 1 -263 0
-132 -3 -246 -8 -252 -8 -12 -153 -45 -161 -37 -3 3 5 25 17 50 69 142 46 335
-53 431 -77 74 -156 93 -402 93 l-173 0 0 -375z m399 172 c43 -22 65 -62 69
-130 3 -50 0 -72 -16 -103 -35 -69 -52 -78 -158 -84 l-94 -5 0 168 0 167 88 0
c49 0 97 -6 111 -13z"/>
<path d="M3338 1673 c6 -2 18 -2 25 0 6 3 1 5 -13 5 -14 0 -19 -2 -12 -5z"/>
<path d="M2840 1653 c-48 -4 -278 -42 -313 -51 l-28 -8 115 -232 116 -232 80
0 80 0 0 259 c0 143 -3 261 -7 263 -5 2 -24 2 -43 1z"/>
<path d="M2338 1552 c-53 -15 -88 -30 -89 -38 -1 -8 -1 -21 -1 -29 0 -8 0 -91
1 -185 l1 -170 95 0 95 0 -1 158 c-1 86 -4 187 -8 223 l-6 66 -87 -25z"/>
<path d="M1605 1184 l-60 -49 59 -3 c32 -2 60 -1 63 1 2 3 3 26 1 52 l-3 48
-60 -49z"/>
</g>
</svg>
